<svg width="900" height="900" viewBox="0 0 900 900" fill="none" xmlns="http://www.w3.org/2000/svg">
<path d="M241.061 450.123C241.061 327.445 340.867 227.639 463.545 227.639C586.226 227.639 686.035 327.445 686.035 450.123C686.035 572.797 586.226 672.604 463.545 672.604C340.867 672.604 241.061 572.797 241.061 450.123Z" fill="#FF8084" stroke="black" stroke-width="2"/>
<circle cx="464.644" cy="449.244" r="164.559" fill="#FF8084" stroke="black" stroke-width="12"/>
<path d="M208 309.624C208 301.136 207.67 288.897 207.254 273.404C206.614 249.73 205.819 211.318 205.819 180.507C205.819 173.093 198.495 167.083 189.46 167.083C180.425 167.083 173.101 173.093 173.101 180.507C173.101 211.616 173.901 250.191 174.545 273.997C174.657 278.158 174.768 282.155 174.86 285.938L158.031 286.141V185.002C158.031 177.588 150.707 171.577 141.672 171.577C132.637 171.577 125.313 177.588 125.313 185.002V286.538L110.03 286.721V185.002C110.03 177.588 102.706 171.577 93.6715 171.577C84.6365 171.577 77.3125 177.588 77.3125 185.002V287.115L62.7179 287.29L62.7179 177.424C62.7179 170.01 55.3939 164 46.359 164C37.324 164 30 170.01 30 177.424L30 307.99C30 340.566 59.102 362.825 105.518 367.204V444.111C100.792 444.183 98.189 444.247 97.9224 444.251C90.0071 444.442 83.3908 449.255 82.2226 455.682C74.477 498.147 57.9484 631.008 59.3007 685.378C60.1393 718.965 87.2103 734 113.666 734C141.818 734 173.135 716.908 174.647 689.292C176.378 657.586 166.184 523.242 161.831 475.049C161.041 466.275 160.45 459.74 160.174 456.378C159.597 449.334 152.462 443.853 143.854 443.853C141.92 443.853 140.053 443.853 138.236 443.861V366.998C180.027 361.508 208 334.317 208 309.624Z" fill="#80DFFF" stroke="black" stroke-width="6"/>
<path d="M849.307 456.095C849.288 449.414 849.02 382.859 846.606 317.116C845.116 276.472 843.101 244.035 840.628 220.702C839.105 206.31 837.43 195.521 835.518 187.714C833.853 180.918 829.954 165 813.005 165C811.769 165 810.532 165.103 809.325 165.309C798.835 167.075 791.69 173.757 777.087 208.654C768.019 230.339 758.055 258.733 749.03 288.62C738.297 324.174 713.979 411.954 719.922 459.094C723.821 490.03 741.009 496.522 754.745 496.522L755.543 496.514C762.027 496.379 767.181 496.308 771.29 496.308C776.04 496.308 778.995 496.391 782.417 496.494C782.875 496.506 783.337 496.522 783.824 496.534C782.675 518.48 778.124 548.893 773.694 578.475C767.255 621.516 760.591 666.025 762.869 692.368C765.59 723.835 791.763 735 813.351 735C828.562 735 844.099 729.724 854.905 720.892C864.708 712.876 870.063 702.451 869.999 691.544C869.81 659.273 850.704 469.989 849.307 456.095Z" fill="#FFE380" stroke="black" stroke-width="10"/>
</svg>
